<svg xmlns="http://www.w3.org/2000/svg" width="418.5" height="48.469" viewBox="0 0 418.5 48.469"><path d="M6.75-37.031h4.625L3.406-15.156q-.438,1.219-.875,2.484t-.766,2.5Q1.438-8.937,1.234-7.8a12.089,12.089,0,0,0-.2,2.109A4.98,4.98,0,0,0,2.172-2.25,4.514,4.514,0,0,0,5.719-.969a9.511,9.511,0,0,0,4.047-.906,14.637,14.637,0,0,0,3.875-2.734A30.412,30.412,0,0,0,17.5-9.2q1.937-2.766,4.031-6.453l1.625-2.875.844.594-1.625,2.875q-2.281,4.031-4.359,6.984A30.639,30.639,0,0,1,13.859-3.2,15.26,15.26,0,0,1,9.625-.344,11.4,11.4,0,0,1,5.031.594,9.043,9.043,0,0,1,1.672.016,6.585,6.585,0,0,1-.766-1.625,6.945,6.945,0,0,1-2.25-4.187a10.532,10.532,0,0,1-.5-3.344,18.13,18.13,0,0,1,.391-3.562,30.15,30.15,0,0,1,1.141-4.062Zm2.5-8.187a2.583,2.583,0,0,1,.766-1.875,2.506,2.506,0,0,1,1.859-.781,2.531,2.531,0,0,1,1.859.766A2.531,2.531,0,0,1,14.5-45.25a2.6,2.6,0,0,1-.2,1.016,2.432,2.432,0,0,1-.562.828,2.741,2.741,0,0,1-.844.547,2.679,2.679,0,0,1-1.047.2A2.534,2.534,0,0,1,10-43.391,2.455,2.455,0,0,1,9.25-45.219ZM19-8.469a14.862,14.862,0,0,1,.344-3.172,16.045,16.045,0,0,1,.938-2.953,12.836,12.836,0,0,1,1.375-2.453,7.392,7.392,0,0,1,1.656-1.7L36.5-37.937A11.765,11.765,0,0,1,37.688-42a2.411,2.411,0,0,1,2.031-1.531,2.422,2.422,0,0,1,1.563.5,1.511,1.511,0,0,1,.625,1.219,1.752,1.752,0,0,1-.25.938,4.3,4.3,0,0,1-.875.938,11.82,11.82,0,0,0-1.2,1.125,6.422,6.422,0,0,0-.8,1.063,3.715,3.715,0,0,0-.437,1.125,6.217,6.217,0,0,0-.125,1.281,9.969,9.969,0,0,0,.109,1.438q.109.75.391,1.906t.8,2.875q.516,1.719,1.328,4.344a37.6,37.6,0,0,1,1.2,5,28.481,28.481,0,0,1,.391,4.625q0,8.594-6.219,13.031A14.793,14.793,0,0,1,32.234-.109a13.79,13.79,0,0,1-4.328.7,10.239,10.239,0,0,1-3.719-.641,7.735,7.735,0,0,1-2.8-1.812A8.066,8.066,0,0,1,19.625-4.7,10.694,10.694,0,0,1,19-8.469ZM36.313-35.687,25.156-19.406a2.043,2.043,0,0,1,1.594.656A2.509,2.509,0,0,1,27.344-17a3.7,3.7,0,0,1-.156,1.078,2.844,2.844,0,0,1-.437.891,2.424,2.424,0,0,1-.656.609,1.453,1.453,0,0,1-.781.234,1.769,1.769,0,0,1-.906-.219,1.836,1.836,0,0,0-.937-.219,1.966,1.966,0,0,0-1.234.453,3.8,3.8,0,0,0-1,1.266,7.555,7.555,0,0,0-.656,1.922,11.723,11.723,0,0,0-.234,2.422,9.653,9.653,0,0,0,.484,3.156,6.578,6.578,0,0,0,1.406,2.391A6.236,6.236,0,0,0,24.453-1.5a7.735,7.735,0,0,0,2.953.531,8.957,8.957,0,0,0,4.063-.937A9.684,9.684,0,0,0,34.75-4.625q3.375-4.312,3.375-13,0-1.063-.047-2.109t-.156-2.187q-.109-1.141-.3-2.453t-.437-2.969Q36.75-30.125,36.531-32a27.364,27.364,0,0,1-.219-3.031ZM51.063-8.469a14.862,14.862,0,0,1,.344-3.172,16.045,16.045,0,0,1,.938-2.953,12.836,12.836,0,0,1,1.375-2.453,7.392,7.392,0,0,1,1.656-1.7L68.563-37.937A11.764,11.764,0,0,1,69.75-42a2.411,2.411,0,0,1,2.031-1.531,2.422,2.422,0,0,1,1.563.5,1.511,1.511,0,0,1,.625,1.219,1.752,1.752,0,0,1-.25.938,4.3,4.3,0,0,1-.875.938,11.82,11.82,0,0,0-1.2,1.125,6.422,6.422,0,0,0-.8,1.063,3.715,3.715,0,0,0-.437,1.125,6.217,6.217,0,0,0-.125,1.281,9.969,9.969,0,0,0,.109,1.438q.109.75.391,1.906t.8,2.875q.516,1.719,1.328,4.344a37.6,37.6,0,0,1,1.2,5,28.482,28.482,0,0,1,.391,4.625q0,8.594-6.219,13.031A14.793,14.793,0,0,1,64.3-.109a13.79,13.79,0,0,1-4.328.7A10.239,10.239,0,0,1,56.25-.047a7.735,7.735,0,0,1-2.8-1.812A8.066,8.066,0,0,1,51.688-4.7,10.694,10.694,0,0,1,51.063-8.469ZM68.375-35.687,57.219-19.406a2.043,2.043,0,0,1,1.594.656A2.509,2.509,0,0,1,59.406-17a3.7,3.7,0,0,1-.156,1.078,2.844,2.844,0,0,1-.437.891,2.424,2.424,0,0,1-.656.609,1.453,1.453,0,0,1-.781.234,1.769,1.769,0,0,1-.906-.219,1.836,1.836,0,0,0-.937-.219,1.966,1.966,0,0,0-1.234.453,3.8,3.8,0,0,0-1,1.266,7.555,7.555,0,0,0-.656,1.922,11.723,11.723,0,0,0-.234,2.422,9.653,9.653,0,0,0,.484,3.156A6.578,6.578,0,0,0,54.3-3.016,6.236,6.236,0,0,0,56.516-1.5a7.735,7.735,0,0,0,2.953.531,8.957,8.957,0,0,0,4.063-.937,9.684,9.684,0,0,0,3.281-2.719q3.375-4.312,3.375-13,0-1.063-.047-2.109t-.156-2.187q-.109-1.141-.3-2.453t-.437-2.969q-.437-2.781-.656-4.656a27.363,27.363,0,0,1-.219-3.031ZM94-37.031h4.625L90.656-15.156q-.437,1.219-.875,2.484t-.766,2.5q-.328,1.234-.531,2.375a12.089,12.089,0,0,0-.2,2.109A4.937,4.937,0,0,0,89.438-2.25,4.522,4.522,0,0,0,92.969-.969a9.615,9.615,0,0,0,4.063-.906,14.533,14.533,0,0,0,3.891-2.734,30.753,30.753,0,0,0,3.859-4.578,71.542,71.542,0,0,0,4-6.469l1.531-2.75,6.813-18.625h4.625l-7.969,21.875q-.437,1.219-.875,2.484t-.766,2.5q-.328,1.234-.531,2.375a12.089,12.089,0,0,0-.2,2.109,4.98,4.98,0,0,0,1.141,3.438,4.514,4.514,0,0,0,3.547,1.281,9.511,9.511,0,0,0,4.047-.906,14.637,14.637,0,0,0,3.875-2.734A30.412,30.412,0,0,0,127.875-9.2q1.938-2.766,4.031-6.453l1.625-2.875.813.594-1.594,2.875a77.638,77.638,0,0,1-4.328,7.016,30.639,30.639,0,0,1-4.156,4.875,14.882,14.882,0,0,1-4.25,2.844,11.674,11.674,0,0,1-4.609.922,9.043,9.043,0,0,1-3.359-.578,6.585,6.585,0,0,1-2.437-1.641,6.945,6.945,0,0,1-1.484-2.562,10.532,10.532,0,0,1-.5-3.344,17.439,17.439,0,0,1,.219-2.641,22.857,22.857,0,0,1,.656-2.922,67.7,67.7,0,0,1-4.031,6.109,27.713,27.713,0,0,1-3.875,4.266,13.919,13.919,0,0,1-3.984,2.5,11.623,11.623,0,0,1-4.328.813A9.043,9.043,0,0,1,88.922.016a6.585,6.585,0,0,1-2.437-1.641A6.945,6.945,0,0,1,85-4.187a10.532,10.532,0,0,1-.5-3.344,18.13,18.13,0,0,1,.391-3.562,30.15,30.15,0,0,1,1.141-4.062Zm46.281,0h4.625l-7.969,21.875q-.438,1.219-.875,2.484t-.766,2.5q-.328,1.234-.531,2.375a12.089,12.089,0,0,0-.2,2.109A4.98,4.98,0,0,0,135.7-2.25,4.514,4.514,0,0,0,139.25-.969a9.511,9.511,0,0,0,4.047-.906,14.637,14.637,0,0,0,3.875-2.734A30.413,30.413,0,0,0,151.031-9.2q1.938-2.766,4.031-6.453l1.625-2.875.844.594-1.625,2.875q-2.281,4.031-4.359,6.984A30.639,30.639,0,0,1,147.391-3.2a15.26,15.26,0,0,1-4.234,2.859,11.4,11.4,0,0,1-4.594.938A9.043,9.043,0,0,1,135.2.016a6.585,6.585,0,0,1-2.437-1.641,6.944,6.944,0,0,1-1.484-2.562,10.533,10.533,0,0,1-.5-3.344,18.129,18.129,0,0,1,.391-3.562,30.151,30.151,0,0,1,1.141-4.062Zm2.5-8.187a2.583,2.583,0,0,1,.766-1.875,2.506,2.506,0,0,1,1.859-.781,2.531,2.531,0,0,1,1.859.766,2.531,2.531,0,0,1,.766,1.859,2.6,2.6,0,0,1-.2,1.016,2.432,2.432,0,0,1-.562.828,2.74,2.74,0,0,1-.844.547,2.679,2.679,0,0,1-1.047.2,2.534,2.534,0,0,1-1.844-.734A2.455,2.455,0,0,1,142.781-45.219Zm43.813,8.188h4.625L183.25-15.156q-.438,1.219-.875,2.484t-.766,2.5q-.328,1.234-.531,2.375a12.089,12.089,0,0,0-.2,2.109,4.98,4.98,0,0,0,1.141,3.438,4.514,4.514,0,0,0,3.547,1.281,9.511,9.511,0,0,0,4.047-.906,14.637,14.637,0,0,0,3.875-2.734A30.413,30.413,0,0,0,197.344-9.2q1.938-2.766,4.031-6.453L203-18.531l.844.594-1.625,2.875q-2.281,4.031-4.359,6.984A30.639,30.639,0,0,1,193.7-3.2a15.26,15.26,0,0,1-4.234,2.859,11.4,11.4,0,0,1-4.594.938,9.043,9.043,0,0,1-3.359-.578,6.585,6.585,0,0,1-2.437-1.641,6.944,6.944,0,0,1-1.484-2.562,10.533,10.533,0,0,1-.5-3.344,18.129,18.129,0,0,1,.391-3.562,30.151,30.151,0,0,1,1.141-4.062Zm2.5-8.187a2.583,2.583,0,0,1,.766-1.875,2.506,2.506,0,0,1,1.859-.781,2.531,2.531,0,0,1,1.859.766,2.531,2.531,0,0,1,.766,1.859,2.6,2.6,0,0,1-.2,1.016,2.432,2.432,0,0,1-.562.828,2.74,2.74,0,0,1-.844.547,2.679,2.679,0,0,1-1.047.2,2.534,2.534,0,0,1-1.844-.734A2.455,2.455,0,0,1,189.094-45.219Zm9.75,36.75a14.862,14.862,0,0,1,.344-3.172,16.046,16.046,0,0,1,.938-2.953,12.836,12.836,0,0,1,1.375-2.453,7.392,7.392,0,0,1,1.656-1.7l13.188-19.187A11.765,11.765,0,0,1,217.531-42a2.411,2.411,0,0,1,2.031-1.531,2.422,2.422,0,0,1,1.563.5,1.511,1.511,0,0,1,.625,1.219,1.752,1.752,0,0,1-.25.938,4.3,4.3,0,0,1-.875.938,11.82,11.82,0,0,0-1.2,1.125,6.421,6.421,0,0,0-.8,1.063,3.715,3.715,0,0,0-.437,1.125,6.217,6.217,0,0,0-.125,1.281,9.968,9.968,0,0,0,.109,1.438q.109.75.391,1.906t.8,2.875q.516,1.719,1.328,4.344a37.6,37.6,0,0,1,1.2,5,28.481,28.481,0,0,1,.391,4.625q0,8.594-6.219,13.031a14.793,14.793,0,0,1-3.984,2.016,13.79,13.79,0,0,1-4.328.7,10.239,10.239,0,0,1-3.719-.641,7.735,7.735,0,0,1-2.8-1.812A8.066,8.066,0,0,1,199.469-4.7,10.693,10.693,0,0,1,198.844-8.469Zm17.313-27.219L205-19.406a2.043,2.043,0,0,1,1.594.656,2.509,2.509,0,0,1,.594,1.75,3.7,3.7,0,0,1-.156,1.078,2.844,2.844,0,0,1-.437.891,2.424,2.424,0,0,1-.656.609,1.453,1.453,0,0,1-.781.234,1.769,1.769,0,0,1-.906-.219,1.836,1.836,0,0,0-.937-.219,1.966,1.966,0,0,0-1.234.453,3.8,3.8,0,0,0-1,1.266,7.555,7.555,0,0,0-.656,1.922,11.723,11.723,0,0,0-.234,2.422,9.653,9.653,0,0,0,.484,3.156,6.578,6.578,0,0,0,1.406,2.391A6.236,6.236,0,0,0,204.3-1.5a7.735,7.735,0,0,0,2.953.531,8.957,8.957,0,0,0,4.063-.937,9.684,9.684,0,0,0,3.281-2.719q3.375-4.312,3.375-13,0-1.063-.047-2.109t-.156-2.187q-.109-1.141-.3-2.453t-.437-2.969q-.438-2.781-.656-4.656a27.365,27.365,0,0,1-.219-3.031Zm48.813-1.344h4.625l-7.969,21.875q-.437,1.219-.875,2.484t-.766,2.5q-.328,1.234-.531,2.375a12.09,12.09,0,0,0-.2,2.109,4.98,4.98,0,0,0,1.141,3.438,4.514,4.514,0,0,0,3.547,1.281,9.511,9.511,0,0,0,4.047-.906,14.637,14.637,0,0,0,3.875-2.734A30.412,30.412,0,0,0,275.719-9.2q1.937-2.766,4.031-6.453l1.625-2.875.844.594-1.625,2.875q-2.281,4.031-4.359,6.984A30.639,30.639,0,0,1,272.078-3.2a15.26,15.26,0,0,1-4.234,2.859,11.4,11.4,0,0,1-4.594.938,9.043,9.043,0,0,1-3.359-.578,6.585,6.585,0,0,1-2.437-1.641,6.945,6.945,0,0,1-1.484-2.562,10.533,10.533,0,0,1-.5-3.344,18.129,18.129,0,0,1,.391-3.562A30.149,30.149,0,0,1,257-15.156Zm2.5-8.187a2.584,2.584,0,0,1,.766-1.875,2.506,2.506,0,0,1,1.859-.781,2.531,2.531,0,0,1,1.859.766,2.531,2.531,0,0,1,.766,1.859,2.6,2.6,0,0,1-.2,1.016,2.431,2.431,0,0,1-.562.828,2.741,2.741,0,0,1-.844.547,2.679,2.679,0,0,1-1.047.2,2.534,2.534,0,0,1-1.844-.734A2.455,2.455,0,0,1,267.469-45.219Zm9.75,36.75a14.863,14.863,0,0,1,.344-3.172,16.044,16.044,0,0,1,.938-2.953,12.836,12.836,0,0,1,1.375-2.453,7.392,7.392,0,0,1,1.656-1.7l13.188-19.187A11.764,11.764,0,0,1,295.906-42a2.411,2.411,0,0,1,2.031-1.531,2.422,2.422,0,0,1,1.563.5,1.511,1.511,0,0,1,.625,1.219,1.752,1.752,0,0,1-.25.938,4.3,4.3,0,0,1-.875.938,11.82,11.82,0,0,0-1.2,1.125,6.423,6.423,0,0,0-.8,1.063,3.715,3.715,0,0,0-.437,1.125,6.216,6.216,0,0,0-.125,1.281,9.97,9.97,0,0,0,.109,1.438q.109.75.391,1.906t.8,2.875q.516,1.719,1.328,4.344a37.6,37.6,0,0,1,1.2,5,28.483,28.483,0,0,1,.391,4.625q0,8.594-6.219,13.031a14.793,14.793,0,0,1-3.984,2.016,13.79,13.79,0,0,1-4.328.7,10.239,10.239,0,0,1-3.719-.641,7.735,7.735,0,0,1-2.8-1.812A8.066,8.066,0,0,1,277.844-4.7,10.694,10.694,0,0,1,277.219-8.469Zm17.313-27.219L283.375-19.406a2.043,2.043,0,0,1,1.594.656,2.509,2.509,0,0,1,.594,1.75,3.7,3.7,0,0,1-.156,1.078,2.844,2.844,0,0,1-.437.891,2.424,2.424,0,0,1-.656.609,1.453,1.453,0,0,1-.781.234,1.769,1.769,0,0,1-.906-.219,1.836,1.836,0,0,0-.937-.219,1.966,1.966,0,0,0-1.234.453,3.8,3.8,0,0,0-1,1.266,7.555,7.555,0,0,0-.656,1.922,11.723,11.723,0,0,0-.234,2.422,9.653,9.653,0,0,0,.484,3.156,6.578,6.578,0,0,0,1.406,2.391A6.236,6.236,0,0,0,282.672-1.5a7.735,7.735,0,0,0,2.953.531,8.957,8.957,0,0,0,4.063-.937,9.684,9.684,0,0,0,3.281-2.719q3.375-4.312,3.375-13,0-1.063-.047-2.109t-.156-2.187q-.109-1.141-.3-2.453t-.437-2.969q-.437-2.781-.656-4.656a27.361,27.361,0,0,1-.219-3.031Zm14.75,27.219a14.863,14.863,0,0,1,.344-3.172,16.044,16.044,0,0,1,.938-2.953,12.836,12.836,0,0,1,1.375-2.453,7.392,7.392,0,0,1,1.656-1.7l13.188-19.187A11.764,11.764,0,0,1,327.969-42,2.411,2.411,0,0,1,330-43.531a2.422,2.422,0,0,1,1.563.5,1.511,1.511,0,0,1,.625,1.219,1.752,1.752,0,0,1-.25.938,4.3,4.3,0,0,1-.875.938,11.82,11.82,0,0,0-1.2,1.125,6.423,6.423,0,0,0-.8,1.063,3.715,3.715,0,0,0-.437,1.125,6.216,6.216,0,0,0-.125,1.281,9.97,9.97,0,0,0,.109,1.438q.109.75.391,1.906t.8,2.875q.516,1.719,1.328,4.344a37.6,37.6,0,0,1,1.2,5,28.483,28.483,0,0,1,.391,4.625q0,8.594-6.219,13.031a14.793,14.793,0,0,1-3.984,2.016,13.79,13.79,0,0,1-4.328.7,10.239,10.239,0,0,1-3.719-.641,7.735,7.735,0,0,1-2.8-1.812A8.066,8.066,0,0,1,309.906-4.7,10.694,10.694,0,0,1,309.281-8.469Zm17.313-27.219L315.438-19.406a2.043,2.043,0,0,1,1.594.656,2.509,2.509,0,0,1,.594,1.75,3.7,3.7,0,0,1-.156,1.078,2.844,2.844,0,0,1-.437.891,2.424,2.424,0,0,1-.656.609,1.453,1.453,0,0,1-.781.234,1.769,1.769,0,0,1-.906-.219,1.836,1.836,0,0,0-.937-.219,1.966,1.966,0,0,0-1.234.453,3.8,3.8,0,0,0-1,1.266,7.555,7.555,0,0,0-.656,1.922,11.723,11.723,0,0,0-.234,2.422,9.653,9.653,0,0,0,.484,3.156,6.578,6.578,0,0,0,1.406,2.391A6.236,6.236,0,0,0,314.734-1.5a7.735,7.735,0,0,0,2.953.531,8.957,8.957,0,0,0,4.063-.937,9.684,9.684,0,0,0,3.281-2.719q3.375-4.312,3.375-13,0-1.063-.047-2.109t-.156-2.187q-.109-1.141-.3-2.453t-.437-2.969q-.437-2.781-.656-4.656a27.361,27.361,0,0,1-.219-3.031Zm25.625-1.344h4.625l-7.969,21.875q-.437,1.219-.875,2.484t-.766,2.5q-.328,1.234-.531,2.375a12.09,12.09,0,0,0-.2,2.109,4.937,4.937,0,0,0,1.156,3.438,4.522,4.522,0,0,0,3.531,1.281,9.615,9.615,0,0,0,4.063-.906,14.533,14.533,0,0,0,3.891-2.734A30.753,30.753,0,0,0,363-9.187a71.543,71.543,0,0,0,4-6.469l1.531-2.75,6.813-18.625h4.625L372-15.156q-.437,1.219-.875,2.484t-.766,2.5q-.328,1.234-.531,2.375a12.09,12.09,0,0,0-.2,2.109,4.98,4.98,0,0,0,1.141,3.438,4.514,4.514,0,0,0,3.547,1.281,9.511,9.511,0,0,0,4.047-.906,14.637,14.637,0,0,0,3.875-2.734A30.412,30.412,0,0,0,386.094-9.2q1.937-2.766,4.031-6.453l1.625-2.875.813.594-1.594,2.875a77.641,77.641,0,0,1-4.328,7.016,30.639,30.639,0,0,1-4.156,4.875,14.882,14.882,0,0,1-4.25,2.844,11.674,11.674,0,0,1-4.609.922,9.043,9.043,0,0,1-3.359-.578,6.585,6.585,0,0,1-2.437-1.641,6.945,6.945,0,0,1-1.484-2.562,10.532,10.532,0,0,1-.5-3.344,17.438,17.438,0,0,1,.219-2.641,22.859,22.859,0,0,1,.656-2.922,67.707,67.707,0,0,1-4.031,6.109,27.713,27.713,0,0,1-3.875,4.266,13.918,13.918,0,0,1-3.984,2.5A11.623,11.623,0,0,1,350.5.594a9.043,9.043,0,0,1-3.359-.578A6.585,6.585,0,0,1,344.7-1.625a6.945,6.945,0,0,1-1.484-2.562,10.532,10.532,0,0,1-.5-3.344,18.13,18.13,0,0,1,.391-3.562,30.149,30.149,0,0,1,1.141-4.062Zm46.281,0h4.625l-7.969,21.875q-.437,1.219-.875,2.484t-.766,2.5q-.328,1.234-.531,2.375a12.09,12.09,0,0,0-.2,2.109,4.98,4.98,0,0,0,1.141,3.438,4.514,4.514,0,0,0,3.547,1.281,9.511,9.511,0,0,0,4.047-.906,14.637,14.637,0,0,0,3.875-2.734A30.412,30.412,0,0,0,409.25-9.2q1.937-2.766,4.031-6.453l1.625-2.875.844.594-1.625,2.875q-2.281,4.031-4.359,6.984A30.639,30.639,0,0,1,405.609-3.2a15.26,15.26,0,0,1-4.234,2.859,11.4,11.4,0,0,1-4.594.938,9.043,9.043,0,0,1-3.359-.578,6.585,6.585,0,0,1-2.437-1.641A6.945,6.945,0,0,1,389.5-4.187a10.532,10.532,0,0,1-.5-3.344,18.13,18.13,0,0,1,.391-3.562,30.149,30.149,0,0,1,1.141-4.062Zm2.5-8.187a2.584,2.584,0,0,1,.766-1.875,2.506,2.506,0,0,1,1.859-.781,2.531,2.531,0,0,1,1.859.766,2.531,2.531,0,0,1,.766,1.859,2.6,2.6,0,0,1-.2,1.016,2.431,2.431,0,0,1-.562.828,2.741,2.741,0,0,1-.844.547,2.679,2.679,0,0,1-1.047.2,2.534,2.534,0,0,1-1.844-.734A2.455,2.455,0,0,1,401-45.219Z" transform="translate(2.75 47.875)"/></svg>